<mxfile host="app.diagrams.net" modified="2024-03-22T08:22:23.554Z" agent="Mozilla/5.0 (Windows NT 10.0; Win64; x64) AppleWebKit/537.36 (KHTML, like Gecko) Chrome/122.0.0.0 Safari/537.36" etag="92DzfiSLhl5Ri5hVIgLM" version="24.0.7" type="github">
  <diagram name="Page-1" id="6s-D8Ys7_D96jJr5OxkA">
    <mxGraphModel dx="1050" dy="565" grid="1" gridSize="10" guides="1" tooltips="1" connect="1" arrows="1" fold="1" page="1" pageScale="1" pageWidth="850" pageHeight="1100" math="0" shadow="0">
      <root>
        <mxCell id="0" />
        <mxCell id="1" parent="0" />
        <mxCell id="9Md5y-Vj3FW9DmjKm0TT-1" value="VPC" style="points=[[0,0],[0.25,0],[0.5,0],[0.75,0],[1,0],[1,0.25],[1,0.5],[1,0.75],[1,1],[0.75,1],[0.5,1],[0.25,1],[0,1],[0,0.75],[0,0.5],[0,0.25]];outlineConnect=0;gradientColor=none;html=1;whiteSpace=wrap;fontSize=12;fontStyle=0;container=1;pointerEvents=0;collapsible=0;recursiveResize=0;shape=mxgraph.aws4.group;grIcon=mxgraph.aws4.group_vpc2;strokeColor=#8C4FFF;fillColor=none;verticalAlign=top;align=left;spacingLeft=30;fontColor=#AAB7B8;dashed=0;" vertex="1" parent="1">
          <mxGeometry x="20" y="60" width="780" height="480" as="geometry" />
        </mxCell>
        <mxCell id="9Md5y-Vj3FW9DmjKm0TT-2" value="Internet&#xa;gateway" style="sketch=0;outlineConnect=0;fontColor=#232F3E;gradientColor=none;strokeColor=#232F3E;fillColor=#ffffff;dashed=0;verticalLabelPosition=bottom;verticalAlign=top;align=center;html=1;fontSize=12;fontStyle=0;aspect=fixed;shape=mxgraph.aws4.resourceIcon;resIcon=mxgraph.aws4.internet_gateway;" vertex="1" parent="9Md5y-Vj3FW9DmjKm0TT-1">
          <mxGeometry x="10" y="210" width="60" height="60" as="geometry" />
        </mxCell>
        <mxCell id="9Md5y-Vj3FW9DmjKm0TT-3" value="Availability Zone 1" style="fillColor=none;strokeColor=#147EBA;dashed=1;verticalAlign=top;fontStyle=0;fontColor=#147EBA;whiteSpace=wrap;html=1;align=left;" vertex="1" parent="9Md5y-Vj3FW9DmjKm0TT-1">
          <mxGeometry x="70" y="50" width="660" height="160" as="geometry" />
        </mxCell>
        <mxCell id="9Md5y-Vj3FW9DmjKm0TT-4" value="Availability Zone 2" style="fillColor=none;strokeColor=#147EBA;dashed=1;verticalAlign=top;fontStyle=0;fontColor=#147EBA;whiteSpace=wrap;html=1;align=left;" vertex="1" parent="9Md5y-Vj3FW9DmjKm0TT-1">
          <mxGeometry x="70" y="280" width="660" height="160" as="geometry" />
        </mxCell>
        <mxCell id="9Md5y-Vj3FW9DmjKm0TT-5" value="Web Tier" style="strokeWidth=1;shadow=0;dashed=0;align=center;html=1;shape=mxgraph.mockup.text.textBox;fontColor=#666666;align=left;fontSize=17;spacingLeft=4;spacingTop=-3;whiteSpace=wrap;strokeColor=#666666;mainText=" vertex="1" parent="9Md5y-Vj3FW9DmjKm0TT-1">
          <mxGeometry x="170" y="10" width="150" height="30" as="geometry" />
        </mxCell>
        <mxCell id="9Md5y-Vj3FW9DmjKm0TT-6" value="Application Tier" style="strokeWidth=1;shadow=0;dashed=0;align=center;html=1;shape=mxgraph.mockup.text.textBox;fontColor=#666666;align=left;fontSize=17;spacingLeft=4;spacingTop=-3;whiteSpace=wrap;strokeColor=#666666;mainText=" vertex="1" parent="9Md5y-Vj3FW9DmjKm0TT-1">
          <mxGeometry x="370" y="10" width="150" height="30" as="geometry" />
        </mxCell>
        <mxCell id="9Md5y-Vj3FW9DmjKm0TT-7" value="Database Tier" style="strokeWidth=1;shadow=0;dashed=0;align=center;html=1;shape=mxgraph.mockup.text.textBox;fontColor=#666666;align=left;fontSize=17;spacingLeft=4;spacingTop=-3;whiteSpace=wrap;strokeColor=#666666;mainText=" vertex="1" parent="9Md5y-Vj3FW9DmjKm0TT-1">
          <mxGeometry x="570" y="10" width="150" height="30" as="geometry" />
        </mxCell>
      </root>
    </mxGraphModel>
  </diagram>
</mxfile>
